PathFileType	4	(X/Y/Z)	C:/Users/opensim2020/Desktop/walking_exp_matlab/subject02_walking10_straight_01.trc	
DataRate	CameraRate	NumFrames	NumMarkers	Units	OrigDataRate	OrigDataStartFrame	OrigNumFrames	
100.00	100.00	5	43	mm	100.00	531	328	
Frame#	Time	LFHD			RFHD			LBHD			RBHD			C7			T10			CLAV			STRN			RBAK			LSHO			LUPA			LELB			LFRM			LWRA			LWRB			LFIN			RSHO			RUPA			RELB			RFRM			RWRA			RWRB			RFIN			LASI			RASI			LPSI			RPSI			LTHI			LKNE			LTIB			LANK			LHEE			LTOE			RTHI			RKNE			RTIB			RANK			RHEE			RTOE			*39			*40			*41			*42			
		X1	Y1	Z1	X2	Y2	Z2	X3	Y3	Z3	X4	Y4	Z4	X5	Y5	Z5	X6	Y6	Z6	X7	Y7	Z7	X8	Y8	Z8	X9	Y9	Z9	X10	Y10	Z10	X11	Y11	Z11	X12	Y12	Z12	X13	Y13	Z13	X14	Y14	Z14	X15	Y15	Z15	X16	Y16	Z16	X17	Y17	Z17	X18	Y18	Z18	X19	Y19	Z19	X20	Y20	Z20	X21	Y21	Z21	X22	Y22	Z22	X23	Y23	Z23	X24	Y24	Z24	X25	Y25	Z25	X26	Y26	Z26	X27	Y27	Z27	X28	Y28	Z28	X29	Y29	Z29	X30	Y30	Z30	X31	Y31	Z31	X32	Y32	Z32	X33	Y33	Z33	X34	Y34	Z34	X35	Y35	Z35	X36	Y36	Z36	X37	Y37	Z37	X38	Y38	Z38	X39	Y39	Z39	X40	Y40	Z40	X41	Y41	Z41	X42	Y42	Z42	X43	Y43	Z43	

83	0.820	1441.68762	-867.77533	1758.77917	1583.89319	-867.09528	1733.22485	1426.35107	-981.72943	1661.70166	1566.11731	-993.08923	1632.03186	1501.50989	-1025.39978	1526.55225	1510.96289	-1079.46814	1252.68018	1472.13806	-889.91101	1459.23584	1475.71204	-838.15082	1286.04199	1573.15369	-1074.69019	1355.47363	1312.56860	-978.44275	1502.59180	1232.89868	-1014.21558	1301.71924	1224.59595	-1022.43018	1159.40552	1218.21326	-1007.16278	1026.90527	1253.73010	-942.51086	908.20520	1223.12598	-989.66083	905.37335	1220.77966	-966.02655	843.41229	1674.84973	-919.90692	1492.07019	1766.95117	-926.18573	1302.51245	1784.28931	-900.18134	1157.99976	1799.36572	-857.87701	1045.47668	1774.27087	-800.66504	923.88953	1813.80298	-841.16095	916.75592	1812.60437	-795.99292	859.84576	1351.30786	-865.94092	995.82391	1605.31531	-839.54529	975.61633	1451.00781	-1065.26477	1033.63525	1565.75208	-1057.79370	1032.12158	1272.78125	-882.91840	692.11871	1288.75049	-864.21893	496.57092	1307.03931	-948.22205	325.10022	1331.74731	-973.73029	102.72716	1392.99243	-991.46283	76.00838	1269.40784	-844.37506	44.68251	1660.50085	-923.17761	667.92896	1610.97083	-942.45227	459.24878	1611.91650	-995.07312	277.49203	1565.38269	-1025.11755	87.34412	1508.55737	-1062.51501	34.68168	1583.73755	-875.72437	32.35302	1532.14307	-980.92572	1798.80835	-3360.41455	2845.24902	1034.21069						 
84	0.830	1441.29114	-863.22467	1758.54297	1583.48999	-861.86920	1733.35706	1426.59143	-976.72180	1660.94751	1566.50452	-987.55774	1631.65198	1502.01721	-1019.49878	1526.12061	1511.79932	-1073.80859	1252.38550	1472.62659	-883.97498	1458.80493	1476.03027	-832.84998	1285.53564	1574.07153	-1068.91406	1355.38916	1313.06995	-973.00732	1501.94849	1233.98767	-1008.80127	1300.85205	1225.79333	-1017.24493	1158.51636	1220.50842	-1000.37848	1026.06763	1256.58130	-934.43030	907.81537	1226.05823	-981.44794	904.67657	1223.45972	-957.25830	843.32147	1675.19543	-913.84668	1492.01831	1767.31177	-918.37518	1302.34863	1784.64270	-891.01776	1158.07629	1799.31177	-847.69025	1045.83337	1773.78699	-789.67883	924.90411	1813.55200	-829.99500	917.36792	1812.04956	-784.29712	860.70966	1351.42542	-860.22046	995.44922	1605.81360	-833.68420	975.45111	1451.53137	-1059.49878	1033.18457	1566.20789	-1052.24158	1031.61609	1273.98315	-875.63452	692.22205	1290.44409	-855.70831	495.89484	1307.43274	-933.57550	320.93350	1330.73584	-950.58160	97.47884	1391.84717	-967.54346	70.14445	1269.06323	-818.66882	44.78760	1660.61572	-919.51654	667.55701	1611.21619	-940.16852	459.01321	1611.82532	-993.97180	277.53070	1565.33875	-1025.09399	87.65728	1508.36047	-1062.49170	34.86934	1583.78369	-875.82697	32.18031	1532.17712	-976.47717	1798.54822	-3360.45264	2845.26831	1034.10864						 
85	0.840	1440.72668	-858.67310	1758.17395	1583.14734	-856.72406	1733.43628	1426.71838	-971.65228	1660.10767	1566.74585	-981.97937	1631.17358	1502.45300	-1013.96759	1525.77991	1512.52417	-1068.16821	1252.04883	1472.98157	-878.34363	1458.37366	1476.46265	-827.23694	1284.98389	1574.98413	-1062.97339	1355.25745	1313.43726	-967.43054	1501.30432	1234.84521	-1003.62427	1300.24890	1227.11304	-1011.59332	1157.65430	1222.53589	-993.19409	1025.02356	1259.85193	-926.70966	907.90454	1228.72461	-973.12762	904.09332	1225.74634	-948.57977	843.16724	1675.46985	-907.82446	1491.84192	1767.58325	-910.68915	1302.02979	1784.80371	-881.94977	1158.09753	1799.07886	-837.60974	1046.17969	1773.02783	-778.90662	925.59076	1813.19727	-818.81744	917.85785	1811.27539	-772.86755	861.63184	1351.45825	-854.54724	995.16748	1606.10522	-828.02911	975.09247	1452.05505	-1053.75708	1032.64868	1566.60657	-1046.66199	1031.01611	1275.16956	-868.41992	692.18744	1292.10791	-847.31604	495.07114	1307.44812	-918.83160	316.83313	1329.48901	-927.11176	92.81993	1389.76672	-944.20551	64.65318	1268.83167	-792.83801	45.27639	1660.88953	-915.80243	667.08978	1611.45776	-937.83777	458.99994	1611.71729	-992.88580	277.58173	1565.20300	-1024.91919	87.84540	1508.18433	-1062.35229	34.95644	1583.87878	-875.76825	32.13649	1531.96375	-971.73303	1798.00476	-3360.24414	2845.12671	1034.15918						 
86	0.850	1440.22998	-853.88812	1757.80591	1582.75867	-851.51801	1733.44739	1426.78369	-966.56110	1659.27551	1566.92419	-976.41046	1630.66626	1502.74695	-1008.23505	1525.30591	1513.10925	-1062.47327	1251.63123	1473.22241	-872.63928	1457.88770	1477.00012	-821.42804	1284.52124	1575.58435	-1057.21570	1355.01477	1313.73926	-961.84808	1500.63171	1235.95862	-997.27112	1299.18762	1228.44153	-1005.40063	1156.72998	1224.04907	-986.50739	1024.52551	1262.07959	-918.92316	907.58167	1230.70715	-965.64526	903.77753	1226.96375	-940.51996	843.14154	1675.72412	-901.61108	1491.67517	1767.60974	-902.85577	1301.98669	1784.84937	-872.94940	1158.07239	1798.67273	-827.63568	1046.48389	1772.21265	-768.24994	926.57495	1812.72083	-807.72583	918.32867	1810.38489	-761.25189	862.56622	1351.58887	-848.72931	994.95947	1606.28723	-822.51379	974.68884	1452.51624	-1047.96228	1032.10718	1567.00122	-1041.09753	1030.44141	1276.21558	-861.42419	692.10162	1293.72656	-839.01691	494.23914	1307.12610	-903.95074	312.93509	1328.10840	-903.71320	88.59013	1388.37427	-920.18433	59.44080	1268.74585	-767.13763	46.25323	1660.95203	-911.93634	666.70599	1611.41882	-935.52557	458.69766	1611.61743	-991.80133	277.66660	1564.96753	-1024.62561	87.86305	1507.99011	-1062.28296	35.14877	1584.00720	-875.76270	32.10288	1531.59814	-966.87848	1797.30396	-3357.39990	2845.77100	1034.33997						 
87	0.860	1439.80371	-849.00592	1757.48657	1582.25171	-846.28033	1733.40369	1426.74292	-961.39386	1658.33533	1566.94275	-970.80060	1630.10645	1502.86182	-1002.45709	1524.78833	1513.55640	-1056.79919	1251.26135	1473.38330	-866.85864	1457.40234	1477.17151	-815.95380	1283.88562	1575.74390	-1051.41455	1354.54468	1313.90198	-956.13098	1499.97620	1236.59680	-991.42969	1298.32800	1229.47961	-999.36810	1155.83997	1225.71448	-979.34802	1023.79059	1263.44226	-911.50104	907.40228	1232.32043	-958.21375	903.25055	1227.58606	-933.68658	843.19165	1675.80310	-895.59589	1491.44263	1767.54919	-895.20703	1301.49341	1784.98816	-864.15424	1158.04602	1798.18640	-817.71356	1046.79846	1771.06934	-757.60785	927.15704	1811.93030	-796.70313	918.79858	1809.31360	-749.78729	863.41711	1351.64246	-842.84265	994.70966	1606.75403	-816.66522	974.40070	1452.93555	-1042.17688	1031.49243	1567.28821	-1035.43787	1029.80078	1277.15393	-854.27753	691.44189	1295.23767	-830.83441	493.40256	1306.54810	-889.11450	309.38266	1326.35376	-880.53180	84.96219	1386.21118	-896.91937	55.06353	1268.93237	-741.49896	47.82811	1660.90442	-907.86652	666.27820	1611.49304	-933.21997	458.39667	1611.54309	-990.62378	277.73645	1564.82166	-1024.42249	88.03508	1507.79810	-1062.26294	35.49347	1584.29089	-875.89728	32.17815	1531.18359	-962.05652	1796.62610	-3357.59009	2845.94946	1034.23499						 
